<svg xmlns="http://www.w3.org/2000/svg" viewBox="6 0 108 114" role="img" aria-label="Ratilla Medical Clinic">
  <!-- Two figures, parent (sage, left) and child (teal, right), whose bodies form a heart. -->
  <defs>
    <clipPath id="parent-body">
      <path d="M60 112C30 92 8 74 8 52 8 36 20 28 32 28c14 0 24 10 30 24 5 14 4 38-2 60Z"/>
    </clipPath>
  </defs>
  <path fill="#8FA680" d="M60 112C30 92 8 74 8 52 8 36 20 28 32 28c14 0 24 10 30 24 5 14 4 38-2 60Z"/>
  <path fill="#6B9AA0" d="M60 112c-6-22-7-46-2-60 6-14 16-24 30-24 12 0 24 8 24 24 0 22-22 40-52 60Z"/>
  <path fill="#557F78" clip-path="url(#parent-body)" d="M60 112c-6-22-7-46-2-60 6-14 16-24 30-24 12 0 24 8 24 24 0 22-22 40-52 60Z"/>
  <circle cx="36" cy="13" r="10.5" fill="#8FA680"/>
  <circle cx="86" cy="18" r="7.5" fill="#6B9AA0"/>
</svg>
